<svg width="12" height="12" viewBox="0 0 12 12" fill="none" xmlns="http://www.w3.org/2000/svg">
    <path d="M11.1543 8.58691C11.1543 8.81022 11.0791 8.99707 10.9287 9.14746C10.7783 9.29785 10.6029 9.37305 10.4023 9.37305C10.1973 9.37305 10.0241 9.29785 9.88281 9.14746C9.74154 8.99251 9.6709 8.8125 9.6709 8.60742V6.05078L9.78027 3.23438L8.67285 4.47852L2.1582 10.9932C1.9987 11.1481 1.81868 11.2256 1.61816 11.2256C1.48145 11.2256 1.35384 11.1891 1.23535 11.1162C1.12142 11.0479 1.02799 10.9544 0.955078 10.8359C0.882161 10.7174 0.845703 10.5921 0.845703 10.46C0.845703 10.264 0.927734 10.084 1.0918 9.91992L7.59277 3.39844L8.83691 2.30469L5.89746 2.40723H3.46387C3.25879 2.40723 3.08105 2.33659 2.93066 2.19531C2.78027 2.04948 2.70508 1.8763 2.70508 1.67578C2.70508 1.47526 2.77799 1.2998 2.92383 1.14941C3.06966 0.999023 3.25651 0.923828 3.48438 0.923828H10.3477C10.5938 0.923828 10.7874 0.999023 10.9287 1.14941C11.0745 1.29525 11.1475 1.48665 11.1475 1.72363L11.1543 8.58691Z" fill="#000000"/>
</svg>
