<svg width="29" height="28" viewBox="0 0 29 28" fill="none" xmlns="http://www.w3.org/2000/svg">
<path fill-rule="evenodd" clip-rule="evenodd" d="M14.667 28C22.399 28 28.667 21.732 28.667 14C28.667 6.26801 22.399 0 14.667 0C6.93501 0 0.666992 6.26801 0.666992 14C0.666992 21.732 6.93501 28 14.667 28ZM9.52159 5.83333C8.49895 5.83333 7.66699 6.66622 7.66699 7.68998C7.66699 8.71419 8.49895 9.54739 9.52159 9.54739C10.5434 9.54739 11.3747 8.71414 11.3747 7.68998C11.3747 6.66622 10.5434 5.83333 9.52159 5.83333ZM10.9258 10.3318H8.11531C7.99057 10.3318 7.8895 10.4331 7.8895 10.5581V19.607C7.8895 19.732 7.99057 19.8333 8.11531 19.8333H10.9258C11.0506 19.8333 11.1516 19.732 11.1516 19.607V10.5581C11.1516 10.4331 11.0506 10.3318 10.9258 10.3318ZM15.6052 11.1458C16.1113 10.5932 16.9458 10.1069 18.0746 10.1069C21.2402 10.1069 21.667 12.4002 21.667 14.6435V19.607C21.667 19.732 21.5659 19.8333 21.4412 19.8333H18.6358C18.511 19.8333 18.41 19.732 18.41 19.607V15.2075C18.41 13.9757 18.3191 13.0334 17.1763 13.0334C16.1269 13.0334 15.718 13.6212 15.718 15.1299V19.607C15.718 19.732 15.617 19.8333 15.4922 19.8333H12.6878C12.5631 19.8333 12.462 19.732 12.462 19.607V10.5581C12.462 10.4331 12.5631 10.3318 12.6878 10.3318H15.3794C15.5041 10.3318 15.6052 10.4331 15.6052 10.5581V11.1458Z" fill="#DFDED8" fill-opacity="0.8"/>
</svg>
