<svg width="20" height="24" viewBox="0 0 20 24" fill="none" xmlns="http://www.w3.org/2000/svg">
<path d="M9.86035 0.789062C11.0156 0.789062 11.8027 1.60156 11.8027 2.82031V15.4014L11.6885 18.0039L13.7451 15.5791L16.4365 12.8877C16.792 12.5322 17.2363 12.2656 17.833 12.2656C18.874 12.2656 19.6611 13.04 19.6611 14.1445C19.6611 14.6523 19.458 15.1221 19.0645 15.5283L11.2822 23.3105C10.9395 23.666 10.3809 23.8818 9.86035 23.8818C9.33984 23.8818 8.78125 23.666 8.42578 23.3105L0.668945 15.5283C0.275391 15.1221 0.0595703 14.6523 0.0595703 14.1445C0.0595703 13.04 0.859375 12.2656 1.90039 12.2656C2.48438 12.2656 2.94141 12.5322 3.28418 12.8877L5.97559 15.5791L8.03223 18.0039L7.91797 15.4014V2.82031C7.91797 1.60156 8.69238 0.789062 9.86035 0.789062Z" fill="white"/>
</svg>
