<svg width="100" height="100" viewBox="0 0 100 100" fill="none" xmlns="http://www.w3.org/2000/svg">
    <path d="M0 6C0 2.68629 2.68629 0 6 0H94C97.3137 0 100 2.68629 100 6V94C100 97.3137 97.3137 100 94 100H6C2.68629 100 0 97.3137 0 94V6Z" fill="black"/>
    <path d="M38.0788 42.4688C37.7805 41.4318 37.3615 40.5156 36.8217 39.7202C36.282 38.9105 35.6214 38.2287 34.8402 37.6747C34.0732 37.1065 33.1925 36.6733 32.1982 36.375C31.218 36.0767 30.1314 35.9276 28.9382 35.9276C26.7081 35.9276 24.7479 36.4815 23.0575 37.5895C21.3814 38.6974 20.0746 40.3097 19.1371 42.4261C18.1996 44.5284 17.7308 47.0994 17.7308 50.1392C17.7308 53.179 18.1925 55.7642 19.1158 57.8949C20.0391 60.0256 21.3459 61.652 23.0362 62.7741C24.7266 63.8821 26.7223 64.4361 29.0234 64.4361C31.1115 64.4361 32.8942 64.0668 34.3714 63.3281C35.8629 62.5753 36.9993 61.517 37.7805 60.1534C38.576 58.7898 38.9737 57.1776 38.9737 55.3168L40.8487 55.5938H29.5987V48.6477H47.8587V54.1449C47.8587 57.9801 47.049 61.2756 45.4297 64.0312C43.8104 66.7727 41.5803 68.8892 38.7393 70.3807C35.8984 71.858 32.6456 72.5966 28.9808 72.5966C24.8899 72.5966 21.2962 71.6946 18.1996 69.8906C15.103 68.0724 12.6882 65.4943 10.9553 62.1562C9.23651 58.804 8.37713 54.8267 8.37713 50.2244C8.37713 46.6875 8.88849 43.5341 9.91122 40.7642C10.9482 37.9801 12.397 35.6222 14.2578 33.6903C16.1186 31.7585 18.2848 30.2883 20.7564 29.2798C23.228 28.2713 25.9055 27.767 28.7891 27.767C31.2607 27.767 33.5618 28.1293 35.6925 28.8537C37.8232 29.5639 39.7124 30.5724 41.3601 31.8793C43.022 33.1861 44.3786 34.7415 45.4297 36.5455C46.4808 38.3352 47.1555 40.3097 47.4538 42.4688H38.0788Z" fill="white"/>
    <path d="M70.2575 72H54.7887V28.3636H70.3853C74.7745 28.3636 78.5529 29.2372 81.7205 30.9844C84.8881 32.7173 87.3242 35.2102 89.0288 38.4631C90.7475 41.7159 91.6069 45.608 91.6069 50.1392C91.6069 54.6847 90.7475 58.5909 89.0288 61.858C87.3242 65.125 84.8739 67.6321 81.6779 69.3793C78.4961 71.1264 74.6893 72 70.2575 72ZM64.0146 64.0952H69.8739C72.6012 64.0952 74.8952 63.6122 76.756 62.6463C78.631 61.6662 80.0373 60.1534 80.9748 58.108C81.9265 56.0483 82.4023 53.392 82.4023 50.1392C82.4023 46.9148 81.9265 44.2798 80.9748 42.2344C80.0373 40.1889 78.6381 38.6832 76.7773 37.7173C74.9165 36.7514 72.6225 36.2685 69.8952 36.2685H64.0146V64.0952Z" fill="white"/>
</svg>
