<svg width="28" height="28" viewBox="0 0 29 28" fill="none" xmlns="http://www.w3.org/2000/svg">
    <path fill-rule="evenodd" clip-rule="evenodd" d="M14.3446 0C6.59655 0 0.333008 6.41664 0.333008 14.3549C0.333008 20.7004 4.34627 26.0717 9.91374 27.9728C10.6098 28.1157 10.8648 27.6639 10.8648 27.2838C10.8648 26.9511 10.8418 25.8104 10.8418 24.6218C6.94416 25.4776 6.1325 22.9106 6.1325 22.9106C5.50611 21.247 4.57801 20.8194 4.57801 20.8194C3.3023 19.94 4.67094 19.94 4.67094 19.94C6.08603 20.0351 6.82857 21.4135 6.82857 21.4135C8.08105 23.5998 10.0993 22.9821 10.9112 22.6017C11.0271 21.6748 11.3985 21.0332 11.7929 20.6767C8.6842 20.344 5.41348 19.1082 5.41348 13.5942C5.41348 12.0257 5.96988 10.7423 6.85152 9.74425C6.71242 9.38784 6.22514 7.91405 6.99091 5.94152C6.99091 5.94152 8.17398 5.56119 10.8416 7.41501C11.9836 7.10079 13.1614 6.94094 14.3446 6.9396C15.5277 6.9396 16.7337 7.10614 17.8473 7.41501C20.5152 5.56119 21.6983 5.94152 21.6983 5.94152C22.4641 7.91405 21.9765 9.38784 21.8374 9.74425C22.7422 10.7423 23.2757 12.0257 23.2757 13.5942C23.2757 19.1082 20.005 20.32 16.8731 20.6767C17.3836 21.1282 17.8241 21.9837 17.8241 23.3385C17.8241 25.2635 17.8012 26.8084 17.8012 27.2836C17.8012 27.6639 18.0564 28.1157 18.7522 27.9731C24.3197 26.0714 28.3329 20.7004 28.3329 14.3549C28.3559 6.41664 22.0694 0 14.3446 0Z" fill="#FFFFFF"/>
</svg>
