<svg width="28" height="28" viewBox="0 0 28 28" fill="none" xmlns="http://www.w3.org/2000/svg">
    <path fill-rule="evenodd" clip-rule="evenodd" d="M14 28C21.732 28 28 21.732 28 14C28 6.26802 21.732 0 14 0C6.26802 0 0 6.26802 0 14C0 21.732 6.26802 28 14 28ZM21.5524 11.6899C21.5524 11.5303 21.5524 11.372 21.5417 11.2138C22.2442 10.6925 22.8513 10.0472 23.3333 9.30645C22.6785 9.60463 21.9832 9.80006 21.2716 9.88608C22.0209 9.42601 22.5819 8.70201 22.8499 7.84965C22.1446 8.27839 21.374 8.58095 20.5699 8.74356C19.2106 7.26126 16.9362 7.1898 15.4901 8.58387C14.5574 9.48287 14.1621 10.823 14.4515 12.1019C11.5643 11.9539 8.87477 10.5554 7.05189 8.25504C6.09922 9.93785 6.58552 12.0902 8.16311 13.1715C7.5915 13.154 7.0327 12.9958 6.53363 12.7107V12.7574C6.53363 14.5102 7.73867 16.0194 9.41367 16.3665C8.88544 16.5145 8.33089 16.5364 7.7927 16.43C8.26335 17.9297 9.6106 18.9571 11.147 18.987C9.87508 20.0114 8.3046 20.5677 6.6879 20.5662C6.40209 20.5655 6.11701 20.548 5.83333 20.513C7.47563 21.5936 9.38594 22.1667 11.3368 22.1637V22.1667C17.9408 22.1667 21.5524 16.5554 21.5524 11.6899Z" fill="#FFFFFF"/>
</svg>
