<svg width="64" height="63" viewBox="0 0 64 63" fill="none" xmlns="http://www.w3.org/2000/svg">
<path d="M37.9824 62.3379C36.5762 62.3379 35.541 61.8398 34.877 60.8438C34.2129 59.8672 33.6562 58.627 33.207 57.123L28.6953 42.2402C28.4023 41.2051 28.2949 40.3359 28.373 39.6328C28.4707 38.9297 28.832 38.2461 29.457 37.582L59.5742 4.88672C59.7695 4.69141 59.8672 4.48633 59.8672 4.27148C59.8672 4.03711 59.7891 3.8418 59.6328 3.68555C59.457 3.5293 59.252 3.45117 59.0176 3.45117C58.8027 3.45117 58.5977 3.53906 58.4023 3.71484L25.7949 33.9492C25.0723 34.6133 24.3691 34.9844 23.6855 35.0625C23.002 35.1211 22.1523 34.9941 21.1367 34.6816L5.93164 30.0234C4.50586 29.5938 3.32422 29.0566 2.38672 28.4121C1.44922 27.748 0.980469 26.7227 0.980469 25.3359C0.980469 24.2031 1.40039 23.2363 2.24023 22.4355C3.09961 21.6348 4.16406 20.9902 5.43359 20.502L56.1465 1.07812C56.8105 0.84375 57.4355 0.658203 58.0215 0.521484C58.6074 0.365234 59.1445 0.287109 59.6328 0.287109C60.668 0.287109 61.4883 0.599609 62.0938 1.22461C62.6992 1.83008 63.002 2.65039 63.002 3.68555C63.002 4.19336 62.9336 4.73047 62.7969 5.29688C62.6602 5.86328 62.4648 6.47852 62.2109 7.14258L42.9043 57.6797C42.3574 59.0859 41.6836 60.209 40.8828 61.0488C40.082 61.9082 39.1152 62.3379 37.9824 62.3379Z" fill="black"/>
</svg>
